<svg id="svg" version="1.1" xmlns="http://www.w3.org/2000/svg" xmlns:xlink="http://www.w3.org/1999/xlink" width="400" height="400" viewBox="0, 0, 400,400"><g id="svgg"><path id="path0" d="M280.078 85.400 C 272.216 86.400,258.568 90.963,257.752 92.864 C 257.678 93.037,256.651 93.790,255.470 94.538 C 232.327 109.196,223.710 140.209,235.763 165.472 C 251.333 198.108,294.367 207.276,321.991 183.842 C 323.418 182.631,324.723 181.641,324.891 181.640 C 325.058 181.640,326.200 180.516,327.429 179.142 C 356.525 146.605,339.898 95.305,297.343 86.317 C 293.637 85.534,283.328 84.987,280.078 85.400 " stroke="none" fill="#6ed5fb" fill-rule="evenodd"></path><path id="path1" d="M197.070 66.655 C 193.652 67.178,187.436 70.146,138.262 94.737 C 88.341 119.702,84.688 121.597,82.396 123.713 C 79.331 126.543,77.180 129.826,76.061 133.382 L 75.195 136.133 75.195 200.000 L 75.195 263.867 76.061 266.618 C 77.180 270.174,79.331 273.457,82.396 276.287 C 85.042 278.730,188.618 331.059,193.983 332.664 C 197.078 333.590,202.922 333.590,206.017 332.664 C 211.382 331.059,314.958 278.730,317.604 276.287 C 320.567 273.551,322.758 270.276,323.932 266.825 L 324.805 264.258 324.914 222.915 L 325.024 181.571 322.375 183.823 C 294.918 207.165,252.720 198.872,236.201 166.889 C 223.279 141.869,231.425 110.269,254.789 94.787 L 257.820 92.778 233.500 80.584 C 205.423 66.505,203.316 65.700,197.070 66.655 M116.992 188.090 C 123.756 189.517,131.265 195.345,134.638 201.786 L 135.709 203.832 137.436 202.644 C 148.973 194.707,168.664 207.579,173.726 226.367 L 174.779 230.273 174.910 253.223 C 174.981 265.845,174.941 276.172,174.820 276.172 C 174.699 276.172,171.965 274.852,168.745 273.240 L 162.891 270.308 162.884 251.267 C 162.876 230.057,162.766 228.867,160.366 223.989 C 156.066 215.249,145.914 211.590,142.580 217.578 L 141.602 219.336 141.490 239.384 C 141.429 250.410,141.253 259.371,141.100 259.299 C 140.946 259.226,138.403 257.942,135.449 256.445 L 130.078 253.724 130.071 235.163 C 130.066 220.687,129.943 216.029,129.513 213.999 C 127.095 202.591,114.921 195.613,110.817 203.282 C 109.974 204.859,109.959 205.174,109.849 224.121 C 109.788 234.702,109.654 243.359,109.551 243.359 C 109.449 243.359,106.895 242.122,103.877 240.610 L 98.389 237.861 98.530 219.614 C 98.656 203.286,98.745 201.141,99.379 199.219 C 102.400 190.051,108.379 186.274,116.992 188.090 " stroke="none" fill="#fb0414" fill-rule="evenodd"></path><path id="path2" d="M230.169 145.313 C 230.169 146.064,230.249 146.372,230.347 145.996 C 230.446 145.620,230.446 145.005,230.347 144.629 C 230.249 144.253,230.169 144.561,230.169 145.313 M284.082 197.162 C 285.103 197.243,286.772 197.243,287.793 197.162 C 288.813 197.082,287.979 197.016,285.938 197.016 C 283.896 197.016,283.062 197.082,284.082 197.162 " stroke="none" fill="#94779f" fill-rule="evenodd"></path><path id="path3" d="M246.289 180.859 C 247.347 181.934,248.301 182.813,248.408 182.813 C 248.516 182.813,247.738 181.934,246.680 180.859 C 245.622 179.785,244.668 178.906,244.561 178.906 C 244.453 178.906,245.231 179.785,246.289 180.859 M98.617 220.703 C 98.617 230.264,98.668 234.175,98.730 229.395 C 98.792 224.614,98.792 216.792,98.730 212.012 C 98.668 207.231,98.617 211.143,98.617 220.703 " stroke="none" fill="#ffffff" fill-rule="evenodd"></path><path id="path4" d="M111.057 187.936 C 105.608 188.620,101.302 192.818,99.543 199.162 C 98.897 201.491,98.828 203.502,98.828 219.920 L 98.828 238.099 104.105 240.729 C 107.008 242.176,109.464 243.359,109.563 243.359 C 109.663 243.359,109.793 234.702,109.853 224.121 C 109.958 205.485,109.986 204.834,110.776 203.320 C 114.401 196.373,124.861 200.926,128.837 211.180 L 129.878 213.867 129.998 233.805 L 130.117 253.744 135.375 256.364 C 138.266 257.805,140.802 258.984,141.009 258.984 C 141.244 258.984,141.426 251.548,141.494 239.160 C 141.615 216.918,141.557 217.362,144.565 215.294 C 148.632 212.498,157.091 217.061,160.436 223.857 C 162.810 228.680,162.878 229.437,162.885 250.876 L 162.891 270.308 168.745 273.240 C 171.965 274.852,174.700 276.172,174.823 276.172 C 175.414 276.172,174.732 230.659,174.101 228.075 C 169.225 208.089,149.664 194.521,137.502 202.689 L 135.792 203.838 134.407 201.431 C 129.481 192.870,119.180 186.917,111.057 187.936 " stroke="none" fill="#ffff" fill-rule="evenodd"></path></g></svg>